<mxfile host="app.diagrams.net" modified="2024-01-14T07:27:37.988Z" agent="Mozilla/5.0 (Windows NT 10.0; Win64; x64) AppleWebKit/537.36 (KHTML, like Gecko) Chrome/120.0.0.0 Safari/537.36" etag="ZPURw0wlNcfr1JY9uUVy" version="22.1.18" type="github">
  <diagram id="prtHgNgQTEPvFCAcTncT" name="Page-1">
    <mxGraphModel dx="842" dy="500" grid="1" gridSize="10" guides="1" tooltips="1" connect="1" arrows="1" fold="1" page="1" pageScale="1" pageWidth="827" pageHeight="1169" math="0" shadow="0">
      <root>
        <mxCell id="0" />
        <mxCell id="1" parent="0" />
        <mxCell id="LabkbOPF42GCCeibN9r_-1" value="射线追踪与神经网络结合" style="rounded=1;whiteSpace=wrap;html=1;" vertex="1" parent="1">
          <mxGeometry x="120" y="370" width="120" height="60" as="geometry" />
        </mxCell>
        <mxCell id="LabkbOPF42GCCeibN9r_-2" value="" style="shape=curlyBracket;whiteSpace=wrap;html=1;rounded=1;labelPosition=left;verticalLabelPosition=middle;align=right;verticalAlign=middle;size=0.5;" vertex="1" parent="1">
          <mxGeometry x="240" y="360" width="26.67" height="80" as="geometry" />
        </mxCell>
        <mxCell id="LabkbOPF42GCCeibN9r_-8" value="逆渲染" style="text;strokeColor=none;fillColor=none;html=1;fontSize=18;fontStyle=1;verticalAlign=middle;align=center;" vertex="1" parent="1">
          <mxGeometry x="280" y="340" width="73.33" height="40" as="geometry" />
        </mxCell>
        <mxCell id="LabkbOPF42GCCeibN9r_-9" value="3D目标检测" style="text;strokeColor=none;fillColor=none;html=1;fontSize=18;fontStyle=1;verticalAlign=middle;align=center;" vertex="1" parent="1">
          <mxGeometry x="270" y="420" width="93.33" height="40" as="geometry" />
        </mxCell>
        <mxCell id="LabkbOPF42GCCeibN9r_-10" value="" style="shape=curlyBracket;whiteSpace=wrap;html=1;rounded=1;labelPosition=left;verticalLabelPosition=middle;align=right;verticalAlign=middle;size=0.5;" vertex="1" parent="1">
          <mxGeometry x="363.33" y="340" width="26.67" height="40" as="geometry" />
        </mxCell>
        <mxCell id="LabkbOPF42GCCeibN9r_-12" value="I2-SDF" style="text;strokeColor=none;fillColor=none;html=1;fontSize=18;fontStyle=0;verticalAlign=middle;align=left;" vertex="1" parent="1">
          <mxGeometry x="400" y="320" width="60" height="40" as="geometry" />
        </mxCell>
        <mxCell id="LabkbOPF42GCCeibN9r_-13" value="NeRFactor" style="text;strokeColor=none;fillColor=none;html=1;fontSize=18;fontStyle=0;verticalAlign=middle;align=left;" vertex="1" parent="1">
          <mxGeometry x="400" y="360" width="90" height="40" as="geometry" />
        </mxCell>
        <mxCell id="LabkbOPF42GCCeibN9r_-15" value="Ego3RT" style="text;strokeColor=none;fillColor=none;html=1;fontSize=18;fontStyle=0;verticalAlign=middle;align=left;" vertex="1" parent="1">
          <mxGeometry x="400" y="420" width="70" height="40" as="geometry" />
        </mxCell>
      </root>
    </mxGraphModel>
  </diagram>
</mxfile>
